<svg width="48" height="49" viewBox="0 0 48 49" fill="none" xmlns="http://www.w3.org/2000/svg">
<path d="M38.5346 30.6274C38.389 30.5529 38.2647 30.5079 38.1619 30.4924C37.9134 30.4024 37.6864 30.3419 37.4593 30.2814C36.3668 30.038 35.3598 29.9126 34.3615 29.7359C33.3632 29.5592 32.3649 29.3826 31.3452 29.1764C30.8611 29.0772 30.3723 29.4767 30.2477 30.0626C30.1231 30.6484 30.4271 31.1937 30.9112 31.2929C31.9309 31.4991 32.9807 31.6835 33.979 31.8602C34.9773 32.0368 36.0356 32.17 36.9739 32.3902C37.1496 32.4429 37.3552 32.4739 37.4795 32.5189C37.5523 32.5562 37.6551 32.5717 37.6765 32.6012C37.7494 32.6384 37.7794 32.6167 37.8008 32.6462C37.8222 32.6757 37.8608 32.6027 37.8436 32.7052C37.8306 32.9398 37.719 33.2911 37.5774 33.664L37.1225 34.8048C36.5175 36.3697 35.9038 37.986 35.4444 39.6255C35.38 39.8524 35.8255 40.0246 35.9327 39.8568C36.8805 38.4486 37.8069 37.0109 38.6818 35.5654C38.9049 35.1784 39.0979 34.8132 39.3209 34.4262C39.5226 34.0096 39.7242 33.5931 39.8274 32.9778C39.8746 32.8534 39.8662 32.5893 39.8706 32.4059C39.8535 32.1931 39.8365 31.9802 39.7595 31.8109C39.614 31.4209 39.2971 31.1103 38.993 30.8805C38.8045 30.747 38.6589 30.6724 38.5346 30.6274Z" fill="#8C72E3"/>
<path d="M25.5341 0.961794C25.1486 0.745991 24.5528 0.997982 23.8798 1.39607C23.1768 1.81593 22.298 2.49846 21.3934 3.33483C19.4642 5.09464 17.3079 6.79396 15.1944 8.55231C13.0809 10.3107 10.9288 12.142 9.01216 14.2981C8.06456 15.3908 7.12977 16.5644 6.41766 17.9818C5.68415 19.3697 5.18612 21.0823 5.41652 22.8519C5.50198 23.2854 5.58743 23.7189 5.7029 24.1306L5.93821 24.7707C6.03666 24.9695 6.15651 25.1979 6.30637 25.4045L6.49045 25.7214L6.75595 26.0242C6.93581 26.209 7.08567 26.4156 7.34696 26.5864C7.78812 26.9421 8.30649 27.1516 8.83346 27.3098C9.89599 27.575 10.8217 27.399 11.6445 27.2075C12.4673 27.016 13.1531 26.6987 13.8603 26.4109C16.0677 25.3502 17.9709 24.0597 19.8442 22.7909C21.7174 21.5221 23.5179 20.2161 25.3353 19.1229C26.2398 18.602 27.1956 18.0888 28.0356 17.7947C28.46 17.622 28.8585 17.6032 29.0941 17.6124C29.1456 17.6201 29.197 17.6279 29.2784 17.6139L29.5783 17.7116C29.754 17.7644 29.9296 17.8171 30.0453 17.9134C30.1695 17.9584 30.2123 18.0174 30.2551 18.0765C30.2465 18.1277 30.2979 18.1355 30.3108 18.2163C30.3664 18.3561 30.2762 18.7368 30.1046 19.1316C29.7827 19.9506 29.1566 20.8552 28.5605 21.738C27.9344 22.6427 27.2654 23.4882 26.5793 24.4364C25.9232 25.3628 25.237 26.3109 24.6794 27.4361C24.1731 28.5691 23.7997 29.6958 23.5719 30.897C23.3441 32.0982 23.3734 33.3381 23.617 34.5578C23.8905 35.7556 24.4812 36.9487 25.4619 37.8588C26.4513 38.7176 27.8265 39.1613 29.0907 39.01C30.3763 38.8882 31.525 38.3252 32.4552 37.6504C33.4154 36.9539 34.2172 36.102 34.9462 35.2129C35.6623 34.243 35.0969 33.8424 34.3251 34.6725C33.562 35.4513 32.756 36.1711 31.8516 36.692C30.9685 37.2425 29.9871 37.5941 29.0358 37.6085C28.0845 37.6229 27.2234 37.2566 26.5896 36.6354C25.9858 35.9924 25.6092 35.0945 25.4469 34.1762C25.1608 32.2667 25.7191 30.1952 26.6756 28.4203C27.1603 27.5733 27.8292 26.7277 28.4982 25.8821C29.1971 25.0147 29.9175 24.1769 30.625 23.2583C31.3326 22.3396 32.0401 21.421 32.5936 20.1637C32.881 19.5498 33.1342 18.8256 33.0619 17.8421C33.0365 17.3651 32.8354 16.8353 32.5871 16.4299C32.2874 16.0167 31.9491 15.6766 31.5849 15.4903C31.2294 15.2527 30.8867 15.0959 30.5354 14.9904L30.0384 14.8104C29.8628 14.7577 29.6057 14.719 29.4 14.688C28.5688 14.6153 27.806 14.7633 27.1674 14.9563C25.8902 15.3422 24.823 15.8912 23.7771 16.4697C21.7368 17.6345 19.8849 18.9327 18.0203 20.1502C16.177 21.3973 14.3123 22.6148 12.4779 23.4951C11.9121 23.7253 11.3678 23.985 10.8492 24.0909C10.3521 24.2263 9.87214 24.2592 9.59366 24.191C9.34518 24.101 9.19953 24.0264 8.99404 23.68C8.92981 23.5915 8.887 23.5325 8.85278 23.4222L8.72012 23.113C8.65168 22.8924 8.61325 22.65 8.54482 22.4294C8.25019 20.5712 9.65265 18.3377 11.3634 16.4661C13.0828 14.5432 15.1149 12.7989 17.1983 11.0624C19.2818 9.32577 21.4382 7.62645 23.526 5.70652C24.5207 4.80485 25.254 3.73238 25.6144 2.84032C25.9621 1.86747 25.8982 1.14808 25.5341 0.961794Z" fill="#8C72E3"/>
</svg>
