<svg width="318" height="84" viewBox="0 0 318 84" fill="none" xmlns="http://www.w3.org/2000/svg">
<g filter="url(#filter0_d_2150_106)">
<rect x="6" y="4" width="306" height="73" rx="32.791" fill="url(#paint0_linear_2150_106)"/>
</g>
<path d="M92.3717 25.0999C92.3717 26.1349 92.5097 27.0779 92.7627 27.9059C93.0157 28.7339 93.3837 29.4469 93.8667 30.0219C94.3497 30.6199 94.9247 31.0569 95.5917 31.3789C96.2587 31.7009 96.9947 31.8619 97.7997 31.8619C98.5127 31.8619 99.1337 31.7469 99.7087 31.4709C100.261 31.2179 100.744 30.8959 101.135 30.4819C101.549 30.0449 101.871 29.5849 102.124 29.0789C102.354 28.5499 102.538 28.0209 102.607 27.4689H104.746C104.7 27.9519 104.608 28.4349 104.447 28.9409C104.263 29.4469 104.056 29.9299 103.78 30.3899C103.504 30.8499 103.182 31.2869 102.791 31.7009C102.423 32.1149 101.986 32.4829 101.48 32.8049C100.974 33.1039 100.422 33.3569 99.8007 33.5179C99.2027 33.7019 98.5357 33.7939 97.7997 33.7939C97.2937 33.7939 96.7647 33.7479 96.1897 33.6329C95.6147 33.5409 95.0397 33.3569 94.4877 33.1039C93.9127 32.8739 93.3837 32.5289 92.8547 32.1149C92.3257 31.7009 91.8657 31.1719 91.4747 30.5509C91.0837 29.9299 90.7617 29.1709 90.5317 28.3199C90.2787 27.4689 90.1637 26.4569 90.1637 25.3299C90.1637 24.2259 90.2787 23.2139 90.4857 22.3399C90.6927 21.4659 90.9917 20.7069 91.3597 20.0399C91.7277 19.3959 92.1647 18.8439 92.6707 18.3839C93.1537 17.9239 93.6827 17.5559 94.2577 17.2569C94.8327 16.9809 95.4307 16.7739 96.0287 16.6359C96.6497 16.5209 97.2707 16.4519 97.8687 16.4519C98.6277 16.4519 99.3177 16.5439 99.9157 16.6819C100.537 16.8429 101.089 17.0499 101.595 17.3029C102.078 17.5789 102.492 17.9009 102.86 18.2459C103.228 18.5909 103.55 18.9589 103.803 19.3499C104.056 19.7409 104.24 20.1549 104.378 20.5689C104.516 20.9829 104.608 21.3739 104.631 21.7649H102.469C102.331 21.2359 102.124 20.7529 101.848 20.3389C101.572 19.9249 101.25 19.5569 100.836 19.2809C100.445 19.0049 100.008 18.7749 99.5247 18.6139C99.0187 18.4759 98.4897 18.3839 97.9377 18.3839C97.0867 18.3839 96.3277 18.5449 95.6377 18.8669C94.9707 19.1659 94.3727 19.6259 93.8897 20.2009C93.4067 20.7989 93.0157 21.4889 92.7627 22.3169C92.5097 23.1449 92.3717 24.0879 92.3717 25.0999ZM113.57 31.2179H113.616L116.836 21.3509H119.665V33.3799H117.733V23.6969H117.687L114.513 33.3799H112.535L109.361 23.6969H109.315V33.3799H107.383V21.3509H110.396L113.57 31.2179ZM133.167 27.3539C133.167 28.3429 133.052 29.2169 132.776 30.0219C132.523 30.8039 132.178 31.4709 131.695 32.0229C131.212 32.5749 130.614 33.0119 129.924 33.3109C129.234 33.6099 128.452 33.7479 127.578 33.7479C126.704 33.7479 125.922 33.6099 125.232 33.3109C124.542 33.0119 123.967 32.5749 123.484 32.0229C123.001 31.4709 122.633 30.8039 122.38 30.0219C122.127 29.2169 121.989 28.3429 121.989 27.3539C121.989 26.3649 122.127 25.4909 122.38 24.7089C122.633 23.9269 123.001 23.2599 123.484 22.7079C123.967 22.1559 124.542 21.7189 125.232 21.4199C125.922 21.1209 126.704 20.9829 127.578 20.9829C128.452 20.9829 129.234 21.1209 129.924 21.4199C130.614 21.7189 131.212 22.1559 131.695 22.7079C132.178 23.2599 132.523 23.9269 132.776 24.7089C133.052 25.4909 133.167 26.3649 133.167 27.3539ZM131.097 27.3539C131.097 26.6869 131.028 26.0659 130.867 25.5139C130.729 24.9619 130.499 24.4789 130.2 24.0649C129.901 23.6739 129.533 23.3519 129.096 23.1219C128.659 22.8919 128.153 22.7769 127.578 22.7769C127.003 22.7769 126.497 22.8919 126.06 23.1219C125.623 23.3519 125.255 23.6739 124.956 24.0649C124.657 24.4789 124.427 24.9619 124.289 25.5139C124.128 26.0659 124.059 26.6869 124.059 27.3539C124.059 28.0209 124.128 28.6419 124.289 29.1939C124.427 29.7689 124.657 30.2519 124.956 30.6659C125.255 31.0569 125.623 31.3789 126.06 31.6089C126.497 31.8389 127.003 31.9539 127.578 31.9539C128.153 31.9539 128.659 31.8389 129.096 31.6089C129.533 31.3789 129.901 31.0569 130.2 30.6659C130.499 30.2519 130.729 29.7689 130.867 29.1939C131.028 28.6419 131.097 28.0209 131.097 27.3539ZM134.539 21.3509H144.889V23.1449H140.749V33.3799H138.679V23.1449H134.539V21.3509ZM148.937 23.0069H148.983C149.121 22.7309 149.282 22.4549 149.489 22.2249C149.696 21.9719 149.949 21.7649 150.248 21.5579C150.524 21.3969 150.846 21.2359 151.237 21.1439C151.605 21.0289 152.042 20.9829 152.525 20.9829C153.169 20.9829 153.79 21.0979 154.388 21.3509C154.986 21.6039 155.492 21.9719 155.952 22.4549C156.412 22.9609 156.78 23.5819 157.033 24.3179C157.309 25.0769 157.447 25.9279 157.447 26.9169C157.447 28.1589 157.332 29.1939 157.079 30.0679C156.826 30.9419 156.481 31.6319 155.998 32.1839C155.538 32.7359 154.986 33.1269 154.342 33.3799C153.675 33.6329 152.962 33.7479 152.157 33.7479C151.766 33.7479 151.398 33.7019 151.053 33.5869C150.708 33.4949 150.386 33.3569 150.133 33.1729C149.834 33.0119 149.604 32.8279 149.42 32.6209C149.236 32.4139 149.075 32.2069 148.983 32.0229H148.937V38.1179H146.867V21.3509H148.937V23.0069ZM148.891 27.4229C148.891 28.0899 148.96 28.6649 149.075 29.2169C149.213 29.7689 149.397 30.2519 149.673 30.6659C149.926 31.0569 150.271 31.3789 150.685 31.6089C151.076 31.8389 151.536 31.9539 152.088 31.9539C152.663 31.9539 153.146 31.8389 153.583 31.6089C153.997 31.3789 154.319 31.0569 154.595 30.6659C154.871 30.2519 155.055 29.7689 155.193 29.2169C155.308 28.6649 155.377 28.0899 155.377 27.4229C155.377 26.7329 155.308 26.1349 155.193 25.5599C155.055 24.9849 154.871 24.5019 154.595 24.0879C154.319 23.6739 153.997 23.3519 153.583 23.1219C153.146 22.8919 152.663 22.7769 152.088 22.7769C151.536 22.7769 151.076 22.8919 150.685 23.1219C150.271 23.3519 149.926 23.6739 149.673 24.0879C149.397 24.5019 149.213 24.9849 149.075 25.5599C148.96 26.1349 148.891 26.7329 148.891 27.4229ZM169.997 29.5389C169.928 30.0679 169.744 30.5739 169.468 31.0799C169.192 31.5859 168.824 32.0229 168.364 32.4139C167.927 32.8279 167.398 33.1499 166.8 33.3799C166.179 33.6329 165.489 33.7479 164.753 33.7479C163.948 33.7479 163.212 33.6099 162.522 33.3569C161.832 33.0809 161.234 32.6899 160.751 32.1379C160.245 31.6089 159.854 30.9419 159.578 30.1369C159.279 29.3319 159.141 28.3659 159.141 27.2849C159.141 26.5489 159.21 25.8819 159.394 25.2839C159.555 24.6859 159.762 24.1569 160.038 23.6969C160.314 23.2369 160.636 22.8229 160.981 22.4779C161.349 22.1329 161.717 21.8569 162.131 21.6269C162.522 21.4199 162.936 21.2589 163.35 21.1439C163.764 21.0289 164.178 20.9829 164.569 20.9829C165.397 20.9829 166.133 21.0979 166.823 21.3509C167.513 21.6039 168.088 21.9719 168.594 22.4779C169.077 22.9839 169.445 23.6279 169.744 24.3639C169.997 25.1459 170.135 26.0429 170.135 27.0549V28.0899H161.349C161.349 28.6649 161.441 29.1939 161.602 29.6769C161.74 30.1599 161.97 30.5509 162.269 30.8959C162.545 31.2409 162.913 31.4939 163.327 31.6779C163.741 31.8619 164.201 31.9539 164.73 31.9539C165.259 31.9539 165.719 31.8849 166.087 31.7239C166.455 31.5859 166.754 31.4019 167.007 31.1489C167.26 30.9189 167.444 30.6659 167.605 30.3899C167.766 30.0909 167.881 29.8149 167.996 29.5389H169.997ZM168.065 26.4339C168.042 25.8589 167.95 25.3299 167.812 24.8699C167.628 24.4099 167.398 24.0419 167.122 23.7199C166.846 23.4209 166.478 23.1909 166.087 23.0069C165.673 22.8459 165.236 22.7769 164.73 22.7769C164.27 22.7769 163.833 22.8689 163.442 23.0529C163.028 23.2369 162.683 23.4899 162.384 23.8119C162.085 24.1339 161.855 24.5249 161.671 24.9619C161.487 25.4219 161.372 25.9049 161.349 26.4339H168.065ZM171.6 21.3509H181.95V23.1449H177.81V33.3799H175.74V23.1449H171.6V21.3509ZM186.113 25.8819H189.448C190.115 25.8819 190.69 25.9739 191.196 26.1349C191.725 26.3189 192.162 26.5719 192.53 26.8939C192.875 27.2159 193.151 27.6069 193.358 28.0669C193.542 28.5269 193.634 29.0559 193.634 29.6309C193.634 30.2059 193.542 30.7349 193.358 31.1949C193.151 31.6549 192.875 32.0459 192.53 32.3679C192.162 32.6899 191.725 32.9429 191.196 33.1269C190.69 33.2879 190.115 33.3799 189.448 33.3799H184.043V21.3509H186.113V25.8819ZM189.034 31.7239C189.402 31.7239 189.724 31.7009 190.046 31.6089C190.345 31.5399 190.621 31.4249 190.851 31.2409C191.081 31.0799 191.242 30.8729 191.38 30.5969C191.495 30.3439 191.564 30.0219 191.564 29.6309C191.564 29.2629 191.495 28.9409 191.38 28.6649C191.242 28.4119 191.058 28.1819 190.828 28.0209C190.598 27.8599 190.299 27.7219 189.977 27.6529C189.632 27.5839 189.264 27.5379 188.85 27.5379H186.113V31.7239H189.034ZM204.014 26.2039H209.626V21.3509H211.696V33.3799H209.626V27.9979H204.014V33.3799H201.944V21.3509H204.014V26.2039ZM214.701 24.9619C214.724 24.2259 214.862 23.6049 215.115 23.0989C215.368 22.5929 215.713 22.1789 216.15 21.8799C216.587 21.5579 217.093 21.3279 217.691 21.1899C218.289 21.0519 218.933 20.9829 219.646 20.9829C220.221 20.9829 220.796 21.0289 221.348 21.1669C221.9 21.2819 222.383 21.4659 222.797 21.7419C223.234 21.9949 223.579 22.3629 223.832 22.7769C224.108 23.1909 224.223 23.7199 224.223 24.3179V31.3099C224.223 31.4939 224.269 31.6779 224.384 31.8159C224.476 31.9539 224.66 32.0229 224.89 32.0229C224.982 32.0229 225.097 31.9999 225.212 31.9769C225.327 31.9769 225.442 31.9539 225.557 31.9309V33.3569C225.396 33.4029 225.212 33.4489 225.051 33.4719C224.89 33.5179 224.683 33.5409 224.453 33.5409C224.085 33.5409 223.786 33.4949 223.533 33.4489C223.257 33.3799 223.05 33.2879 222.866 33.1499C222.705 33.0119 222.567 32.8279 222.452 32.5979C222.36 32.3909 222.314 32.1149 222.268 31.7929C222.015 32.0689 221.739 32.3219 221.463 32.5519C221.187 32.8049 220.865 33.0119 220.497 33.1729C220.152 33.3569 219.761 33.4949 219.324 33.6099C218.887 33.7019 218.404 33.7479 217.852 33.7479C217.392 33.7479 216.955 33.6789 216.518 33.5179C216.081 33.3799 215.667 33.1499 215.322 32.8739C214.977 32.5749 214.701 32.2069 214.494 31.7699C214.264 31.3559 214.172 30.8499 214.172 30.2749C214.172 29.6539 214.264 29.1249 214.494 28.6649C214.701 28.2049 214.977 27.8369 215.299 27.5379C215.644 27.2159 216.035 27.0089 216.472 26.8249C216.909 26.6639 217.346 26.5719 217.783 26.5029L221.164 26.0889C221.486 26.0659 221.739 25.9279 221.923 25.7209C222.107 25.4909 222.199 25.1689 222.199 24.6859C222.199 23.9499 221.969 23.4439 221.486 23.1219C221.003 22.7999 220.336 22.6389 219.439 22.6389C218.519 22.6389 217.852 22.8459 217.392 23.2139C216.955 23.6049 216.679 24.1799 216.633 24.9619H214.701ZM222.153 27.2619C221.992 27.3769 221.785 27.4689 221.555 27.5609C221.302 27.6299 221.026 27.6989 220.75 27.7449C220.451 27.8139 220.129 27.8599 219.807 27.8829L218.818 28.0209C218.45 28.0899 218.105 28.1359 217.783 28.2509C217.484 28.3429 217.208 28.4809 216.978 28.6189C216.725 28.7799 216.564 28.9869 216.426 29.1939C216.311 29.4239 216.242 29.6769 216.242 29.9759C216.242 30.3209 216.288 30.6199 216.403 30.8959C216.518 31.1489 216.656 31.3789 216.863 31.5399C217.047 31.7239 217.277 31.8619 217.53 31.9539C217.806 32.0459 218.105 32.0919 218.427 32.0919C218.634 32.0919 218.864 32.0689 219.117 31.9999C219.393 31.9539 219.646 31.9079 219.922 31.7929C220.221 31.7009 220.474 31.5629 220.75 31.4249C221.003 31.2639 221.256 31.0799 221.463 30.8729C221.67 30.6429 221.831 30.4129 221.969 30.1139C222.084 29.8379 222.153 29.5389 222.153 29.1939V27.2619ZM78.9809 51.3649H74.8639H73.7139C73.4149 51.3879 73.1389 51.4109 72.9319 51.4339C72.7019 51.4799 72.5179 51.5259 72.3569 51.5719C72.2189 51.6409 72.0579 51.7099 71.9199 51.8019C71.7359 51.9169 71.5979 52.0319 71.4599 52.1699C71.3449 52.3079 71.2299 52.4919 71.1379 52.6989C71.0459 52.9059 70.9539 53.1589 70.9079 53.4809C70.8389 53.7799 70.7929 54.1479 70.7699 54.6079L70.6549 56.4019C70.6549 56.6089 70.6319 56.8159 70.6089 56.9769C70.5859 57.1609 70.5399 57.3449 70.5169 57.4829L70.3789 57.9199C70.3329 58.0579 70.2869 58.2189 70.1949 58.3799H67.6649C67.7569 58.2879 67.8489 58.1729 67.9179 58.0579C67.9869 57.9199 68.0789 57.7819 68.1479 57.6209C68.2169 57.4369 68.2629 57.2529 68.3319 57.0229C68.3779 56.7929 68.4009 56.5169 68.4469 56.1949L68.6309 53.9409L68.7689 52.8599C68.8379 52.5149 68.9299 52.1929 69.0909 51.8939C69.2519 51.5949 69.4819 51.3189 69.8039 51.0889C70.1029 50.8589 70.4939 50.6519 71.0229 50.4909L70.1949 50.1459C69.8499 49.9849 69.5509 49.7549 69.2749 49.4789C68.9529 49.1799 68.7229 48.7889 68.5159 48.3289C68.3089 47.8459 68.1939 47.2479 68.1939 46.5119C68.1939 45.9829 68.2629 45.4999 68.3779 45.0859C68.4929 44.6489 68.6539 44.2809 68.8609 43.9359C69.0449 43.6139 69.2749 43.3149 69.5279 43.0849C69.7809 42.8549 70.0339 42.6479 70.2869 42.5099C70.5629 42.3489 70.8849 42.2339 71.2529 42.1419C71.6209 42.0499 71.9889 41.9809 72.3569 41.9579C72.7249 41.9119 73.0929 41.8889 73.4379 41.8889C73.7829 41.8659 74.1049 41.8659 74.3579 41.8659H81.1889V58.3799H78.9809V51.3649ZM73.3229 43.8209C73.1389 43.8439 72.9319 43.8439 72.7249 43.8669C72.5179 43.8899 72.3339 43.9359 72.1499 43.9819C71.9429 44.0279 71.7819 44.0969 71.6209 44.1889C71.3909 44.3039 71.2069 44.4649 71.0459 44.6489C70.8849 44.8559 70.7699 45.0399 70.6779 45.2699C70.5629 45.4999 70.4939 45.7299 70.4479 45.9599C70.4019 46.2129 70.3789 46.4429 70.3789 46.6729C70.3789 46.8339 70.3789 46.9949 70.4019 47.2019C70.4249 47.3859 70.4709 47.5929 70.5629 47.7999C70.6319 48.0069 70.7469 48.2139 70.8619 48.3979C70.9999 48.6049 71.1839 48.7889 71.4139 48.9499C71.5979 49.0879 71.8049 49.2029 72.0119 49.2719C72.1959 49.3639 72.4029 49.4099 72.6329 49.4559C72.8629 49.4789 73.1159 49.5019 73.3689 49.5019H74.2199H78.9809V43.8209H73.3229ZM86.4758 51.2039H92.0878V46.3509H94.1578V58.3799H92.0878V52.9979H86.4758V58.3799H84.4058V46.3509H86.4758V51.2039ZM97.9221 61.3239H95.9901V56.5859H97.5771C97.8991 55.7809 98.1521 54.9529 98.3591 54.1019C98.5431 53.2509 98.7041 52.4229 98.7961 51.5489C98.9111 50.6979 98.9801 49.8239 99.0031 48.9729C99.0261 48.0989 99.0491 47.2249 99.0491 46.3509H107.444V56.5859H109.146V61.3239H107.214V58.3799H97.9221V61.3239ZM101.027 48.1449C100.958 48.8349 100.935 49.5249 100.866 50.2379C100.82 50.9739 100.728 51.6869 100.636 52.3999C100.544 53.1359 100.429 53.8489 100.268 54.5389C100.107 55.2519 99.9231 55.9419 99.6701 56.5859H105.374V48.1449H101.027ZM121.369 54.5389C121.3 55.0679 121.116 55.5739 120.84 56.0799C120.564 56.5859 120.196 57.0229 119.736 57.4139C119.299 57.8279 118.77 58.1499 118.172 58.3799C117.551 58.6329 116.861 58.7479 116.125 58.7479C115.32 58.7479 114.584 58.6099 113.894 58.3569C113.204 58.0809 112.606 57.6899 112.123 57.1379C111.617 56.6089 111.226 55.9419 110.95 55.1369C110.651 54.3319 110.513 53.3659 110.513 52.2849C110.513 51.5489 110.582 50.8819 110.766 50.2839C110.927 49.6859 111.134 49.1569 111.41 48.6969C111.686 48.2369 112.008 47.8229 112.353 47.4779C112.721 47.1329 113.089 46.8569 113.503 46.6269C113.894 46.4199 114.308 46.2589 114.722 46.1439C115.136 46.0289 115.55 45.9829 115.941 45.9829C116.769 45.9829 117.505 46.0979 118.195 46.3509C118.885 46.6039 119.46 46.9719 119.966 47.4779C120.449 47.9839 120.817 48.6279 121.116 49.3639C121.369 50.1459 121.507 51.0429 121.507 52.0549V53.0899H112.721C112.721 53.6649 112.813 54.1939 112.974 54.6769C113.112 55.1599 113.342 55.5509 113.641 55.8959C113.917 56.2409 114.285 56.4939 114.699 56.6779C115.113 56.8619 115.573 56.9539 116.102 56.9539C116.631 56.9539 117.091 56.8849 117.459 56.7239C117.827 56.5859 118.126 56.4019 118.379 56.1489C118.632 55.9189 118.816 55.6659 118.977 55.3899C119.138 55.0909 119.253 54.8149 119.368 54.5389H121.369ZM119.437 51.4339C119.414 50.8589 119.322 50.3299 119.184 49.8699C119 49.4099 118.77 49.0419 118.494 48.7199C118.218 48.4209 117.85 48.1909 117.459 48.0069C117.045 47.8459 116.608 47.7769 116.102 47.7769C115.642 47.7769 115.205 47.8689 114.814 48.0529C114.4 48.2369 114.055 48.4899 113.756 48.8119C113.457 49.1339 113.227 49.5249 113.043 49.9619C112.859 50.4219 112.744 50.9049 112.721 51.4339H119.437ZM125.985 52.1699L132.057 46.3509H134.771L129.113 51.6639L134.863 58.3799H132.195L127.503 52.9289L125.985 54.1939V58.3799H123.915V46.3509H125.985V52.1699ZM145.968 54.1479C145.945 54.4469 145.876 54.7459 145.807 55.0909C145.715 55.4589 145.577 55.7809 145.416 56.1259C145.255 56.4709 145.048 56.7929 144.795 57.1149C144.542 57.4139 144.22 57.7129 143.852 57.9429C143.484 58.1959 143.047 58.3799 142.541 58.5409C142.035 58.6789 141.46 58.7479 140.816 58.7479C140.471 58.7479 140.103 58.7019 139.712 58.6329C139.298 58.5409 138.93 58.3799 138.562 58.1959C138.194 57.9889 137.849 57.7359 137.504 57.4139C137.182 57.0919 136.883 56.7009 136.63 56.2179C136.377 55.7579 136.17 55.2059 136.032 54.5619C135.894 53.9639 135.802 53.2279 135.802 52.4229C135.802 51.4339 135.963 50.5369 136.239 49.7319C136.515 48.9269 136.906 48.2599 137.389 47.7079C137.849 47.1559 138.401 46.7419 139.045 46.4199C139.666 46.1209 140.333 45.9829 141.023 45.9829C141.667 45.9829 142.219 46.0519 142.702 46.1899C143.185 46.3279 143.599 46.4889 143.967 46.7189C144.312 46.9489 144.611 47.2019 144.864 47.5009C145.117 47.7999 145.324 48.0989 145.485 48.4209C145.623 48.7659 145.738 49.0879 145.83 49.4329C145.899 49.7549 145.945 50.0999 145.968 50.3989H144.036C143.944 49.5709 143.645 48.9269 143.185 48.4669C142.725 48.0069 142.081 47.7769 141.253 47.7769C140.678 47.7769 140.195 47.8919 139.781 48.1219C139.344 48.3519 138.999 48.6739 138.723 49.0879C138.424 49.5019 138.217 50.0079 138.079 50.6059C137.941 51.2039 137.872 51.8249 137.872 52.5379C137.872 53.3429 137.941 54.0099 138.102 54.5849C138.24 55.1599 138.447 55.6199 138.746 55.9879C139.022 56.3789 139.344 56.6549 139.758 56.8159C140.149 56.9999 140.609 57.0919 141.115 57.0919C141.483 57.0919 141.805 57.0229 142.15 56.8849C142.472 56.7699 142.748 56.5629 143.001 56.3099C143.254 56.0569 143.484 55.7579 143.645 55.3899C143.829 55.0219 143.967 54.6079 144.036 54.1479H145.968ZM150.798 58.3799H148.452V55.9419H150.798V58.3799ZM156.809 49.9159L164.859 41.8659H167.941L161.064 48.5359L168.125 58.3799H165.296L159.477 50.0539L156.809 52.6299V58.3799H154.601V41.8659H156.809V49.9159ZM169.734 49.9619C169.757 49.2259 169.895 48.6049 170.148 48.0989C170.401 47.5929 170.746 47.1789 171.183 46.8799C171.62 46.5579 172.126 46.3279 172.724 46.1899C173.322 46.0519 173.966 45.9829 174.679 45.9829C175.254 45.9829 175.829 46.0289 176.381 46.1669C176.933 46.2819 177.416 46.4659 177.83 46.7419C178.267 46.9949 178.612 47.3629 178.865 47.7769C179.141 48.1909 179.256 48.7199 179.256 49.3179V56.3099C179.256 56.4939 179.302 56.6779 179.417 56.8159C179.509 56.9539 179.693 57.0229 179.923 57.0229C180.015 57.0229 180.13 56.9999 180.245 56.9769C180.36 56.9769 180.475 56.9539 180.59 56.9309V58.3569C180.429 58.4029 180.245 58.4489 180.084 58.4719C179.923 58.5179 179.716 58.5409 179.486 58.5409C179.118 58.5409 178.819 58.4949 178.566 58.4489C178.29 58.3799 178.083 58.2879 177.899 58.1499C177.738 58.0119 177.6 57.8279 177.485 57.5979C177.393 57.3909 177.347 57.1149 177.301 56.7929C177.048 57.0689 176.772 57.3219 176.496 57.5519C176.22 57.8049 175.898 58.0119 175.53 58.1729C175.185 58.3569 174.794 58.4949 174.357 58.6099C173.92 58.7019 173.437 58.7479 172.885 58.7479C172.425 58.7479 171.988 58.6789 171.551 58.5179C171.114 58.3799 170.7 58.1499 170.355 57.8739C170.01 57.5749 169.734 57.2069 169.527 56.7699C169.297 56.3559 169.205 55.8499 169.205 55.2749C169.205 54.6539 169.297 54.1249 169.527 53.6649C169.734 53.2049 170.01 52.8369 170.332 52.5379C170.677 52.2159 171.068 52.0089 171.505 51.8249C171.942 51.6639 172.379 51.5719 172.816 51.5029L176.197 51.0889C176.519 51.0659 176.772 50.9279 176.956 50.7209C177.14 50.4909 177.232 50.1689 177.232 49.6859C177.232 48.9499 177.002 48.4439 176.519 48.1219C176.036 47.7999 175.369 47.6389 174.472 47.6389C173.552 47.6389 172.885 47.8459 172.425 48.2139C171.988 48.6049 171.712 49.1799 171.666 49.9619H169.734ZM177.186 52.2619C177.025 52.3769 176.818 52.4689 176.588 52.5609C176.335 52.6299 176.059 52.6989 175.783 52.7449C175.484 52.8139 175.162 52.8599 174.84 52.8829L173.851 53.0209C173.483 53.0899 173.138 53.1359 172.816 53.2509C172.517 53.3429 172.241 53.4809 172.011 53.6189C171.758 53.7799 171.597 53.9869 171.459 54.1939C171.344 54.4239 171.275 54.6769 171.275 54.9759C171.275 55.3209 171.321 55.6199 171.436 55.8959C171.551 56.1489 171.689 56.3789 171.896 56.5399C172.08 56.7239 172.31 56.8619 172.563 56.9539C172.839 57.0459 173.138 57.0919 173.46 57.0919C173.667 57.0919 173.897 57.0689 174.15 56.9999C174.426 56.9539 174.679 56.9079 174.955 56.7929C175.254 56.7009 175.507 56.5629 175.783 56.4249C176.036 56.2639 176.289 56.0799 176.496 55.8729C176.703 55.6429 176.864 55.4129 177.002 55.1139C177.117 54.8379 177.186 54.5389 177.186 54.1939V52.2619ZM184.493 48.0069H184.539C184.677 47.7309 184.838 47.4549 185.045 47.2249C185.252 46.9719 185.505 46.7649 185.804 46.5579C186.08 46.3969 186.402 46.2359 186.793 46.1439C187.161 46.0289 187.598 45.9829 188.081 45.9829C188.725 45.9829 189.346 46.0979 189.944 46.3509C190.542 46.6039 191.048 46.9719 191.508 47.4549C191.968 47.9609 192.336 48.5819 192.589 49.3179C192.865 50.0769 193.003 50.9279 193.003 51.9169C193.003 53.1589 192.888 54.1939 192.635 55.0679C192.382 55.9419 192.037 56.6319 191.554 57.1839C191.094 57.7359 190.542 58.1269 189.898 58.3799C189.231 58.6329 188.518 58.7479 187.713 58.7479C187.322 58.7479 186.954 58.7019 186.609 58.5869C186.264 58.4949 185.942 58.3569 185.689 58.1729C185.39 58.0119 185.16 57.8279 184.976 57.6209C184.792 57.4139 184.631 57.2069 184.539 57.0229H184.493V63.1179H182.423V46.3509H184.493V48.0069ZM184.447 52.4229C184.447 53.0899 184.516 53.6649 184.631 54.2169C184.769 54.7689 184.953 55.2519 185.229 55.6659C185.482 56.0569 185.827 56.3789 186.241 56.6089C186.632 56.8389 187.092 56.9539 187.644 56.9539C188.219 56.9539 188.702 56.8389 189.139 56.6089C189.553 56.3789 189.875 56.0569 190.151 55.6659C190.427 55.2519 190.611 54.7689 190.749 54.2169C190.864 53.6649 190.933 53.0899 190.933 52.4229C190.933 51.7329 190.864 51.1349 190.749 50.5599C190.611 49.9849 190.427 49.5019 190.151 49.0879C189.875 48.6739 189.553 48.3519 189.139 48.1219C188.702 47.8919 188.219 47.7769 187.644 47.7769C187.092 47.7769 186.632 47.8919 186.241 48.1219C185.827 48.3519 185.482 48.6739 185.229 49.0879C184.953 49.5019 184.769 49.9849 184.631 50.5599C184.516 51.1349 184.447 51.7329 184.447 52.4229ZM194.375 46.3509H204.725V48.1449H200.585V58.3799H198.515V48.1449H194.375V46.3509ZM206.795 49.9619C206.818 49.2259 206.956 48.6049 207.209 48.0989C207.462 47.5929 207.807 47.1789 208.244 46.8799C208.681 46.5579 209.187 46.3279 209.785 46.1899C210.383 46.0519 211.027 45.9829 211.74 45.9829C212.315 45.9829 212.89 46.0289 213.442 46.1669C213.994 46.2819 214.477 46.4659 214.891 46.7419C215.328 46.9949 215.673 47.3629 215.926 47.7769C216.202 48.1909 216.317 48.7199 216.317 49.3179V56.3099C216.317 56.4939 216.363 56.6779 216.478 56.8159C216.57 56.9539 216.754 57.0229 216.984 57.0229C217.076 57.0229 217.191 56.9999 217.306 56.9769C217.421 56.9769 217.536 56.9539 217.651 56.9309V58.3569C217.49 58.4029 217.306 58.4489 217.145 58.4719C216.984 58.5179 216.777 58.5409 216.547 58.5409C216.179 58.5409 215.88 58.4949 215.627 58.4489C215.351 58.3799 215.144 58.2879 214.96 58.1499C214.799 58.0119 214.661 57.8279 214.546 57.5979C214.454 57.3909 214.408 57.1149 214.362 56.7929C214.109 57.0689 213.833 57.3219 213.557 57.5519C213.281 57.8049 212.959 58.0119 212.591 58.1729C212.246 58.3569 211.855 58.4949 211.418 58.6099C210.981 58.7019 210.498 58.7479 209.946 58.7479C209.486 58.7479 209.049 58.6789 208.612 58.5179C208.175 58.3799 207.761 58.1499 207.416 57.8739C207.071 57.5749 206.795 57.2069 206.588 56.7699C206.358 56.3559 206.266 55.8499 206.266 55.2749C206.266 54.6539 206.358 54.1249 206.588 53.6649C206.795 53.2049 207.071 52.8369 207.393 52.5379C207.738 52.2159 208.129 52.0089 208.566 51.8249C209.003 51.6639 209.44 51.5719 209.877 51.5029L213.258 51.0889C213.58 51.0659 213.833 50.9279 214.017 50.7209C214.201 50.4909 214.293 50.1689 214.293 49.6859C214.293 48.9499 214.063 48.4439 213.58 48.1219C213.097 47.7999 212.43 47.6389 211.533 47.6389C210.613 47.6389 209.946 47.8459 209.486 48.2139C209.049 48.6049 208.773 49.1799 208.727 49.9619H206.795ZM214.247 52.2619C214.086 52.3769 213.879 52.4689 213.649 52.5609C213.396 52.6299 213.12 52.6989 212.844 52.7449C212.545 52.8139 212.223 52.8599 211.901 52.8829L210.912 53.0209C210.544 53.0899 210.199 53.1359 209.877 53.2509C209.578 53.3429 209.302 53.4809 209.072 53.6189C208.819 53.7799 208.658 53.9869 208.52 54.1939C208.405 54.4239 208.336 54.6769 208.336 54.9759C208.336 55.3209 208.382 55.6199 208.497 55.8959C208.612 56.1489 208.75 56.3789 208.957 56.5399C209.141 56.7239 209.371 56.8619 209.624 56.9539C209.9 57.0459 210.199 57.0919 210.521 57.0919C210.728 57.0919 210.958 57.0689 211.211 56.9999C211.487 56.9539 211.74 56.9079 212.016 56.7929C212.315 56.7009 212.568 56.5629 212.844 56.4249C213.097 56.2639 213.35 56.0799 213.557 55.8729C213.764 55.6429 213.925 55.4129 214.063 55.1139C214.178 54.8379 214.247 54.5389 214.247 54.1939V52.2619ZM218.31 58.3799L222.519 52.2159L218.517 46.3509H221.116L223.968 50.5369L226.682 46.3509H229.166L225.095 52.2159L229.35 58.3799H226.751L223.692 53.8949L220.863 58.3799H218.31Z" fill="white"/>
<g clip-path="url(#clip0_2150_106)">
<path d="M244.501 38C239.807 38 236.001 41.7607 236.001 46.4C236.001 48.7188 236.952 50.8184 238.49 52.3384C240.028 53.8592 243.651 56.06 243.864 58.37C243.896 58.7163 244.149 59 244.501 59C244.853 59 245.107 58.7163 245.139 58.37C245.351 56.06 248.975 53.8592 250.513 52.3384C252.05 50.8184 253.001 48.7188 253.001 46.4C253.001 41.7607 249.196 38 244.501 38Z" fill="url(#paint1_linear_2150_106)"/>
<path d="M244.501 49.3419C246.144 49.3419 247.477 48.0254 247.477 46.4014C247.477 44.7774 246.144 43.4609 244.501 43.4609C242.858 43.4609 241.526 44.7774 241.526 46.4014C241.526 48.0254 242.858 49.3419 244.501 49.3419Z" fill="white"/>
</g>
<defs>
<filter id="filter0_d_2150_106" x="0.534838" y="-0.00778532" width="316.93" height="83.9303" filterUnits="userSpaceOnUse" color-interpolation-filters="sRGB">
<feFlood flood-opacity="0" result="BackgroundImageFix"/>
<feColorMatrix in="SourceAlpha" type="matrix" values="0 0 0 0 0 0 0 0 0 0 0 0 0 0 0 0 0 0 127 0" result="hardAlpha"/>
<feOffset dy="1.45738"/>
<feGaussianBlur stdDeviation="2.73258"/>
<feComposite in2="hardAlpha" operator="out"/>
<feColorMatrix type="matrix" values="0 0 0 0 0.0444749 0 0 0 0 0 0 0 0 0 0.119231 0 0 0 0.25 0"/>
<feBlend mode="normal" in2="BackgroundImageFix" result="effect1_dropShadow_2150_106"/>
<feBlend mode="normal" in="SourceGraphic" in2="effect1_dropShadow_2150_106" result="shape"/>
</filter>
<linearGradient id="paint0_linear_2150_106" x1="6" y1="20.79" x2="305.118" y2="76.7876" gradientUnits="userSpaceOnUse">
<stop stop-color="#8771DF"/>
<stop offset="0.509615" stop-color="#B777FF"/>
<stop offset="1" stop-color="#8771DF"/>
</linearGradient>
<linearGradient id="paint1_linear_2150_106" x1="244.501" y1="38" x2="244.501" y2="59" gradientUnits="userSpaceOnUse">
<stop stop-color="#FF6122"/>
<stop offset="1" stop-color="#F22411"/>
</linearGradient>
<clipPath id="clip0_2150_106">
<rect width="17" height="21" fill="white" transform="translate(236 38)"/>
</clipPath>
</defs>
</svg>
